<svg width="36" height="36" viewBox="0 0 36 36" fill="none" xmlns="http://www.w3.org/2000/svg">
<g clip-path="url(#clip0_7_29985)">
<path d="M29.9999 23.828C29.6089 24.22 28.9769 24.22 28.5859 23.828L27.1719 22.414C26.7799 22.023 26.7799 21.39 27.1719 21L29.9999 18.172C30.3909 17.781 31.0229 17.781 31.4139 18.172L32.8279 19.586C33.2199 19.977 33.2199 20.61 32.8279 21L29.9999 23.828ZM14.9999 8.828C14.6089 9.22 13.9769 9.22 13.5859 8.828L12.1719 7.414C11.7799 7.023 11.7799 6.391 12.1719 6L14.9999 3.172C15.3909 2.781 16.0229 2.781 16.4139 3.172L17.8279 4.586C18.2199 4.977 18.2199 5.609 17.8279 6L14.9999 8.828Z" fill="#66757F"/>
<path d="M2.00012 22C4.00012 22 13.0001 23 13.0001 23C13.0001 23 14.0001 32 14.0001 34C14.0001 36 12.0001 36 11.0001 35C10.0001 34 7.00012 29 7.00012 29C7.00012 29 2.00012 26 1.00012 25C0.000115991 24 0.000115991 22 2.00012 22ZM4.00012 6.039C7.00012 6 29.0001 7 29.0001 7C29.0001 7 29.9241 29 29.9621 32C30.0001 35 27.1991 36.002 26.1001 32.001C25.0011 28 21.0001 15 21.0001 15C21.0001 15 7.04512 10.583 3.99512 9.898C0.000115871 9 0.999116 6.077 4.00012 6.039Z" fill="#55ACEE"/>
<path d="M27 3C29 1 34 1.37091e-06 35 1C36 2 35 7 33 9C31 11 14 27 14 27C14 27 7.49997 31.5 5.99997 30C4.49997 28.5 8.99997 22 8.99997 22C8.99997 22 25 5 27 3Z" fill="#CCD6DD"/>
<path d="M13.9999 22C13.9999 22 14.4999 22.5 9.99993 27C5.49993 31.5 4.99993 31 4.99993 31C4.99993 31 4.49993 30.5 8.99993 26C13.4999 21.5 13.9999 22 13.9999 22ZM28.9999 4C30.6569 4 31.9999 5.343 31.9999 7H32.8049C32.9189 6.685 32.9999 6.355 32.9999 6C32.9999 4.343 31.6569 3 29.9999 3C29.6449 3 29.3149 3.081 28.9999 3.195V4Z" fill="#66757F"/>
</g>
<defs>
<clipPath id="clip0_7_29985">
<rect width="36" height="36" fill="white"/>
</clipPath>
</defs>
</svg>
