<!-- 생략된 역들 -->
<svg width="20" height="20" viewBox="0 0 20 20" fill="none" xmlns="http://www.w3.org/2000/svg">
  <g clip-path="url(#clip0_1087_1719)">
    <path d="M12 20.0051C12 18.9006 11.1045 18.0051 10 18.0051C8.89551 18.0051 8 18.9006 8 20.0051H12Z" fill="currentColor" />
    <path d="M12 15.0051C12 16.1097 11.1046 17.0051 10 17.0051C8.89543 17.0051 8 16.1097 8 15.0051C8 13.9006 8.89543 13.0051 10 13.0051C11.1046 13.0051 12 13.9006 12 15.0051Z" fill="currentColor" />
    <path d="M12 10.0051C12 11.1097 11.1046 12.0051 10 12.0051C8.89543 12.0051 8 11.1097 8 10.0051C8 8.90056 8.89543 8.00513 10 8.00513C11.1046 8.00513 12 8.90056 12 10.0051Z" fill="currentColor" />
    <path d="M12 5.00513C12 6.1097 11.1046 7.00513 10 7.00513C8.89543 7.00513 8 6.1097 8 5.00513C8 3.90056 8.89543 3.00513 10 3.00513C11.1046 3.00513 12 3.90056 12 5.00513Z" fill="currentColor" />
    <path d="M8 0.00512695C8 1.10962 8.89551 2.00513 10 2.00513C11.1045 2.00513 12 1.10962 12 0.00512695H8Z" fill="currentColor" />
  </g>
  <defs>
    <clipPath id="clip0_1087_1719">
      <rect width="20" height="20" fill="white" transform="translate(0 0.00512695)" />
    </clipPath>
  </defs>
</svg>
