<svg width="65" height="6" viewBox="0 0 65 6" fill="none" xmlns="http://www.w3.org/2000/svg">
  <path d="M0 0H1V1H0V0Z" fill="#cbd5e1"/>
  <path d="M1 1H2V2H1V1Z" fill="#cbd5e1"/>
  <path d="M33 1H34V2H33V1Z" fill="#cbd5e1"/>
  <path d="M17 1H18V2H17V1Z" fill="#cbd5e1"/>
  <path d="M49 1H50V2H49V1Z" fill="#cbd5e1"/>
  <path d="M9 1H10V2H9V1Z" fill="#cbd5e1"/>
  <path d="M41 1H42V2H41V1Z" fill="#cbd5e1"/>
  <path d="M25 1H26V2H25V1Z" fill="#cbd5e1"/>
  <path d="M57 1H58V2H57V1Z" fill="#cbd5e1"/>
  <path d="M5 5H6V4H5V5Z" fill="#cbd5e1"/>
  <path d="M37 5H38V4H37V5Z" fill="#cbd5e1"/>
  <path d="M21 5H22V4H21V5Z" fill="#cbd5e1"/>
  <path d="M53 5H54V4H53V5Z" fill="#cbd5e1"/>
  <path d="M13 5H14V4H13V5Z" fill="#cbd5e1"/>
  <path d="M45 5H46V4H45V5Z" fill="#cbd5e1"/>
  <path d="M29 5H30V4H29V5Z" fill="#cbd5e1"/>
  <path d="M61 5H62V4H61V5Z" fill="#cbd5e1"/>
  <path d="M2 2H3V3H2V2Z" fill="#cbd5e1"/>
  <path d="M34 2H35V3H34V2Z" fill="#cbd5e1"/>
  <path d="M18 2H19V3H18V2Z" fill="#cbd5e1"/>
  <path d="M50 2H51V3H50V2Z" fill="#cbd5e1"/>
  <path d="M10 2H11V3H10V2Z" fill="#cbd5e1"/>
  <path d="M42 2H43V3H42V2Z" fill="#cbd5e1"/>
  <path d="M26 2H27V3H26V2Z" fill="#cbd5e1"/>
  <path d="M58 2H59V3H58V2Z" fill="#cbd5e1"/>
  <path d="M6 4H7V3H6V4Z" fill="#cbd5e1"/>
  <path d="M38 4H39V3H38V4Z" fill="#cbd5e1"/>
  <path d="M22 4H23V3H22V4Z" fill="#cbd5e1"/>
  <path d="M54 4H55V3H54V4Z" fill="#cbd5e1"/>
  <path d="M14 4H15V3H14V4Z" fill="#cbd5e1"/>
  <path d="M46 4H47V3H46V4Z" fill="#cbd5e1"/>
  <path d="M30 4H31V3H30V4Z" fill="#cbd5e1"/>
  <path d="M62 4H63V3H62V4Z" fill="#cbd5e1"/>
  <path d="M3 3H4V4H3V3Z" fill="#cbd5e1"/>
  <path d="M35 3H36V4H35V3Z" fill="#cbd5e1"/>
  <path d="M19 3H20V4H19V3Z" fill="#cbd5e1"/>
  <path d="M51 3H52V4H51V3Z" fill="#cbd5e1"/>
  <path d="M11 3H12V4H11V3Z" fill="#cbd5e1"/>
  <path d="M43 3H44V4H43V3Z" fill="#cbd5e1"/>
  <path d="M27 3H28V4H27V3Z" fill="#cbd5e1"/>
  <path d="M59 3H60V4H59V3Z" fill="#cbd5e1"/>
  <path d="M7 3H8V2H7V3Z" fill="#cbd5e1"/>
  <path d="M39 3H40V2H39V3Z" fill="#cbd5e1"/>
  <path d="M23 3H24V2H23V3Z" fill="#cbd5e1"/>
  <path d="M55 3H56V2H55V3Z" fill="#cbd5e1"/>
  <path d="M15 3H16V2H15V3Z" fill="#cbd5e1"/>
  <path d="M47 3H48V2H47V3Z" fill="#cbd5e1"/>
  <path d="M31 3H32V2H31V3Z" fill="#cbd5e1"/>
  <path d="M63 3H64V2H63V3Z" fill="#cbd5e1"/>
  <path d="M4 4H5V5H4V4Z" fill="#cbd5e1"/>
  <path d="M36 4H37V5H36V4Z" fill="#cbd5e1"/>
  <path d="M20 4H21V5H20V4Z" fill="#cbd5e1"/>
  <path d="M52 4H53V5H52V4Z" fill="#cbd5e1"/>
  <path d="M12 4H13V5H12V4Z" fill="#cbd5e1"/>
  <path d="M44 4H45V5H44V4Z" fill="#cbd5e1"/>
  <path d="M28 4H29V5H28V4Z" fill="#cbd5e1"/>
  <path d="M60 4H61V5H60V4Z" fill="#cbd5e1"/>
  <path d="M8 2H9V1H8V2Z" fill="#cbd5e1"/>
  <path d="M40 2H41V1H40V2Z" fill="#cbd5e1"/>
  <path d="M24 2H25V1H24V2Z" fill="#cbd5e1"/>
  <path d="M56 2H57V1H56V2Z" fill="#cbd5e1"/>
  <path d="M16 2H17V1H16V2Z" fill="#cbd5e1"/>
  <path d="M48 2H49V1H48V2Z" fill="#cbd5e1"/>
  <path d="M32 2H33V1H32V2Z" fill="#cbd5e1"/>
  <path d="M64 2H65V1H64V2Z" fill="#cbd5e1"/>
  <path d="M0 1H1V2H0V1Z" fill="#cbd5e1"/>
  <path d="M1 2H2V3H1V2Z" fill="#cbd5e1"/>
  <path d="M33 2H34V3H33V2Z" fill="#cbd5e1"/>
  <path d="M17 2H18V3H17V2Z" fill="#cbd5e1"/>
  <path d="M49 2H50V3H49V2Z" fill="#cbd5e1"/>
  <path d="M9 2H10V3H9V2Z" fill="#cbd5e1"/>
  <path d="M41 2H42V3H41V2Z" fill="#cbd5e1"/>
  <path d="M25 2H26V3H25V2Z" fill="#cbd5e1"/>
  <path d="M57 2H58V3H57V2Z" fill="#cbd5e1"/>
  <path d="M5 4H6V3H5V4Z" fill="#cbd5e1"/>
  <path d="M37 4H38V3H37V4Z" fill="#cbd5e1"/>
  <path d="M21 4H22V3H21V4Z" fill="#cbd5e1"/>
  <path d="M53 4H54V3H53V4Z" fill="#cbd5e1"/>
  <path d="M13 4H14V3H13V4Z" fill="#cbd5e1"/>
  <path d="M45 4H46V3H45V4Z" fill="#cbd5e1"/>
  <path d="M29 4H30V3H29V4Z" fill="#cbd5e1"/>
  <path d="M61 4H62V3H61V4Z" fill="#cbd5e1"/>
  <path d="M2 3H3V4H2V3Z" fill="#cbd5e1"/>
  <path d="M34 3H35V4H34V3Z" fill="#cbd5e1"/>
  <path d="M18 3H19V4H18V3Z" fill="#cbd5e1"/>
  <path d="M50 3H51V4H50V3Z" fill="#cbd5e1"/>
  <path d="M10 3H11V4H10V3Z" fill="#cbd5e1"/>
  <path d="M42 3H43V4H42V3Z" fill="#cbd5e1"/>
  <path d="M26 3H27V4H26V3Z" fill="#cbd5e1"/>
  <path d="M58 3H59V4H58V3Z" fill="#cbd5e1"/>
  <path d="M6 3H7V2H6V3Z" fill="#cbd5e1"/>
  <path d="M38 3H39V2H38V3Z" fill="#cbd5e1"/>
  <path d="M22 3H23V2H22V3Z" fill="#cbd5e1"/>
  <path d="M54 3H55V2H54V3Z" fill="#cbd5e1"/>
  <path d="M14 3H15V2H14V3Z" fill="#cbd5e1"/>
  <path d="M46 3H47V2H46V3Z" fill="#cbd5e1"/>
  <path d="M30 3H31V2H30V3Z" fill="#cbd5e1"/>
  <path d="M62 3H63V2H62V3Z" fill="#cbd5e1"/>
  <path d="M3 4H4V5H3V4Z" fill="#cbd5e1"/>
  <path d="M35 4H36V5H35V4Z" fill="#cbd5e1"/>
  <path d="M19 4H20V5H19V4Z" fill="#cbd5e1"/>
  <path d="M51 4H52V5H51V4Z" fill="#cbd5e1"/>
  <path d="M11 4H12V5H11V4Z" fill="#cbd5e1"/>
  <path d="M43 4H44V5H43V4Z" fill="#cbd5e1"/>
  <path d="M27 4H28V5H27V4Z" fill="#cbd5e1"/>
  <path d="M59 4H60V5H59V4Z" fill="#cbd5e1"/>
  <path d="M7 2H8V1H7V2Z" fill="#cbd5e1"/>
  <path d="M39 2H40V1H39V2Z" fill="#cbd5e1"/>
  <path d="M23 2H24V1H23V2Z" fill="#cbd5e1"/>
  <path d="M55 2H56V1H55V2Z" fill="#cbd5e1"/>
  <path d="M15 2H16V1H15V2Z" fill="#cbd5e1"/>
  <path d="M47 2H48V1H47V2Z" fill="#cbd5e1"/>
  <path d="M31 2H32V1H31V2Z" fill="#cbd5e1"/>
  <path d="M63 2H64V1H63V2Z" fill="#cbd5e1"/>
  <path d="M4 5H5V6H4V5Z" fill="#cbd5e1"/>
  <path d="M36 5H37V6H36V5Z" fill="#cbd5e1"/>
  <path d="M20 5H21V6H20V5Z" fill="#cbd5e1"/>
  <path d="M52 5H53V6H52V5Z" fill="#cbd5e1"/>
  <path d="M12 5H13V6H12V5Z" fill="#cbd5e1"/>
  <path d="M44 5H45V6H44V5Z" fill="#cbd5e1"/>
  <path d="M28 5H29V6H28V5Z" fill="#cbd5e1"/>
  <path d="M60 5H61V6H60V5Z" fill="#cbd5e1"/>
  <path d="M8 1H9V0H8V1Z" fill="#cbd5e1"/>
  <path d="M40 1H41V0H40V1Z" fill="#cbd5e1"/>
  <path d="M24 1H25V0H24V1Z" fill="#cbd5e1"/>
  <path d="M56 1H57V0H56V1Z" fill="#cbd5e1"/>
  <path d="M16 1H17V0H16V1Z" fill="#cbd5e1"/>
  <path d="M48 1H49V0H48V1Z" fill="#cbd5e1"/>
  <path d="M32 1H33V0H32V1Z" fill="#cbd5e1"/>
  <path d="M64 1H65V0H64V1Z" fill="#cbd5e1"/>
</svg>
